<svg width="355" height="212" viewBox="0 0 355 212"  alt="corporative" fill="none" xmlns="http://www.w3.org/2000/svg">
<rect x="4.55859" y="4.37244" width="346.229" height="202.945" rx="22" stroke="#09044A" stroke-width="8"/>
<path d="M200.065 159.771L281.746 159.771" stroke="#09044A" stroke-width="8" stroke-linecap="round" stroke-linejoin="round"/>
<path d="M200.065 143.91L314.657 143.91" stroke="#09044A" stroke-width="8" stroke-linecap="round" stroke-linejoin="round"/>
<path d="M200.065 128.05L314.657 128.05" stroke="#09044A" stroke-width="8" stroke-linecap="round" stroke-linejoin="round"/>
<path d="M44.6313 159.771L117.193 159.771" stroke="#09044A" stroke-width="8" stroke-linecap="round" stroke-linejoin="round"/>
<path d="M43.0454 70.9517L115.607 70.9517" stroke="#09044A" stroke-width="8" stroke-linecap="round" stroke-linejoin="round"/>
<path d="M42.2524 48.7469L114.814 48.7469" stroke="#09044A" stroke-width="8" stroke-linecap="round" stroke-linejoin="round"/>
<path d="M101.901 87.7043H57.0287C53.4884 87.7043 50.6184 90.5743 50.6184 94.1146V138.987C50.6184 142.527 53.4884 145.397 57.0287 145.397H101.901C105.441 145.397 108.311 142.527 108.311 138.987V94.1146C108.311 90.5743 105.441 87.7043 101.901 87.7043Z" stroke="#09044A" stroke-width="6" stroke-linecap="round" stroke-linejoin="round"/>
<path d="M68.2467 110.14C70.9019 110.14 73.0544 107.988 73.0544 105.333C73.0544 102.677 70.9019 100.525 68.2467 100.525C65.5915 100.525 63.439 102.677 63.439 105.333C63.439 107.988 65.5915 110.14 68.2467 110.14Z" stroke="#09044A" stroke-width="6" stroke-linecap="round" stroke-linejoin="round"/>
<path d="M108.311 126.166L92.2852 110.14L57.0286 145.397" stroke="#09044A" stroke-width="6" stroke-linecap="round" stroke-linejoin="round"/>
</svg>
