<svg width="106" height="82" viewBox="0 0 106 82"  alt="feeds" fill="none" xmlns="http://www.w3.org/2000/svg">
<path d="M19.4665 0.572021C17.4018 0.572244 15.7281 2.38287 15.7279 4.61646V16.7498H4.51224C3.52074 16.7499 2.56988 17.176 1.86879 17.9345C1.16769 18.6929 0.773781 19.7216 0.773682 20.7942V69.3274C0.773682 75.9793 5.84051 81.4607 11.9893 81.4607H94.2375C100.386 81.4607 105.453 75.9793 105.453 69.3274V4.61646C105.453 2.38287 103.779 0.572244 101.715 0.572021H19.4665ZM23.205 8.66088H97.9761V69.3274C97.9761 71.638 96.3733 73.3719 94.2375 73.3719H22.504C22.9286 72.0984 23.205 70.7502 23.205 69.3274V32.6668V20.7942V8.66088ZM8.25079 24.8386H15.7279V32.6668V69.3274C15.7279 71.638 14.1251 73.3719 11.9893 73.3719C9.85351 73.3719 8.25079 71.638 8.25079 69.3274V24.8386Z" fill="#09044A"/>
<path d="M37.8999 29.1204H45.3279C50.4218 29.2113 50.4218 19.5143 45.3279 19.6054H37.8999C35.7764 19.5673 34.0485 21.7552 34.0813 24.4081C34.1152 27.0611 35.8225 29.1563 37.8999 29.1204Z" fill="#09044A"/>
<path d="M82.6017 29.1204H60.1059C55.0122 29.2113 55.0122 19.5143 60.1059 19.6054H82.6017C84.7252 19.5673 86.453 21.7551 86.4202 24.4081C86.3863 27.061 84.6791 29.1563 82.6017 29.1204Z" fill="#09044A"/>
<path d="M82.596 44.981H37.9067C32.8055 45.0567 32.8055 36.9759 37.9067 37.0518H82.596C84.7226 37.0201 86.453 38.8433 86.4201 41.0541C86.3865 43.2649 84.6764 45.0109 82.596 44.981Z" fill="#09044A"/>
<path d="M82.596 61.6345H37.9067C32.8055 61.7178 32.8055 52.8289 37.9067 52.9123H82.596C84.7226 52.8774 86.453 54.883 86.4201 57.3149C86.3865 59.7467 84.6764 61.6674 82.596 61.6345Z" fill="#09044A"/>
</svg>
