<svg width="102" height="102" viewBox="0 0 102 102" fill="none" xmlns="http://www.w3.org/2000/svg">
<path d="M79.9635 12.887H21.0498C16.4016 12.887 12.6335 16.655 12.6335 21.3032V80.2169C12.6335 84.8651 16.4016 88.6332 21.0498 88.6332H79.9635C84.6117 88.6332 88.3798 84.8651 88.3798 80.2169V21.3032C88.3798 16.655 84.6117 12.887 79.9635 12.887Z" stroke="#09044A" stroke-width="9" stroke-linecap="round" stroke-linejoin="round"/>
<path d="M35.7785 42.3439C39.2646 42.3439 42.0907 39.5178 42.0907 36.0317C42.0907 32.5455 39.2646 29.7195 35.7785 29.7195C32.2924 29.7195 29.4663 32.5455 29.4663 36.0317C29.4663 39.5178 32.2924 42.3439 35.7785 42.3439Z" stroke="#09044A" stroke-width="9" stroke-linecap="round" stroke-linejoin="round"/>
<path d="M88.3798 63.3845L67.3392 42.3439L21.0498 88.6332" stroke="#09044A" stroke-width="9" stroke-linecap="round" stroke-linejoin="round"/>
</svg>
