<svg width="244" height="44" viewBox="0 0 244 44"  alt="logo" fill="none" xmlns="http://www.w3.org/2000/svg">
<path d="M77.708 21.5478C77.708 14.6166 72.8252 10.6304 65.762 10.6304C58.7295 10.6304 53.8159 14.7058 53.8159 21.5478C53.8159 28.5088 58.7295 32.4653 65.762 32.4653C72.8252 32.4653 77.708 28.5088 77.708 21.5478ZM71.6275 21.5478C71.6275 24.9986 69.3243 27.4379 65.762 27.4379C62.3225 27.4379 59.8964 25.0283 59.8964 21.5478C59.8964 18.0971 62.2918 15.6578 65.762 15.6578C69.3243 15.6578 71.6275 17.9781 71.6275 21.5478Z" fill="#09044A"/>
<path d="M86.0241 11.1361H80.8649V31.9596H87.0068V25.296L86.9147 20.7446L95.8819 31.9596H101.041V11.1361H94.9299V18.2756C94.9606 19.0788 94.9606 20.0307 95.1142 22.5295L86.0241 11.1361Z" fill="#09044A"/>
<path d="M105.397 11.1361V31.9596H114.61C122.318 31.9596 125.849 27.1404 125.849 21.3991C125.849 15.6578 122.195 11.1361 114.61 11.1361H105.397ZM111.416 16.0445H114.61C118.325 16.0445 119.83 18.4838 119.83 21.3396C119.83 24.1954 118.479 26.9917 114.61 26.9917H111.416V16.0445Z" fill="#09044A"/>
<path d="M135.138 31.9596V11.1361H129.089V31.9596H135.138Z" fill="#09044A"/>
<path d="M155.741 13.1887C153.437 11.4336 150.919 10.7196 147.695 10.7196C143.15 10.7196 138.697 12.6235 138.697 17.0262C138.697 22.2023 142.75 23.3624 147.449 23.7789C149.814 23.9871 151.042 24.6416 151.042 25.6828C151.042 26.8429 149.66 27.5271 147.664 27.5271C145.852 27.5271 143.487 27.1702 141.368 25.1771L138.021 28.8955C141 31.9298 143.764 32.5843 147.633 32.5545C152.455 32.5248 157.061 30.5019 157.061 25.772C157.061 20.9826 152.608 19.3167 148.34 18.8705C146.221 18.6623 144.777 18.454 144.777 17.0262C144.777 15.9255 146.221 15.4793 147.695 15.4793C149.568 15.4793 151.257 15.8362 152.731 16.9072L155.741 13.1887Z" fill="#09044A"/>
<path d="M166.029 16.1932H170.39C172.048 16.1932 172.938 17.4426 172.938 18.811C172.938 20.1794 172.079 21.3693 170.39 21.3693H166.029V16.1932ZM170.39 26.3372C176.132 26.2777 179.019 22.9757 179.019 18.7218C179.019 14.6463 176.163 11.1361 170.39 11.1361H159.948V31.9596H166.029V26.3372H170.39Z" fill="#09044A"/>
<path d="M181.721 11.1361V31.9596H198.089V26.9619H187.801V11.1361H181.721Z" fill="#09044A"/>
<path d="M217.01 31.9596H223.52L213.908 11.1361H207.766L198.123 31.9596H204.573L205.985 28.5386H215.597L217.01 31.9596ZM213.54 23.6004H208.043L210.807 16.9667L213.54 23.6004Z" fill="#09044A"/>
<path d="M227.231 11.1361H220.382V11.3741L228.551 23.6599V31.9596H234.632V23.6599L243.169 11.4038V11.1361H236.321L231.684 18.2756L227.231 11.1361Z" fill="#09044A"/>
<rect width="43.1858" height="43.1858" rx="21.5929" fill="#09044A"/>
<path fill-rule="evenodd" clip-rule="evenodd" d="M21.2607 29.2939C25.4194 29.2939 28.7906 25.8461 28.7906 21.5929C28.7906 17.3398 25.4194 13.892 21.2607 13.892L21.2607 6.64401C29.3333 6.64401 35.8775 13.3369 35.8775 21.5929C35.8775 29.849 29.3333 36.5419 21.2607 36.5419L21.2607 29.2939Z" fill="#1EF9DF"/>
</svg>
